<svg width="49" height="38" viewBox="0 0 49 38" fill="none" xmlns="http://www.w3.org/2000/svg">
<g clip-path="url(#clip0_213_228)">
<path fill-rule="evenodd" clip-rule="evenodd" d="M0 0H49V38H0V0Z" fill="#4D5749"/>
<path fill-rule="evenodd" clip-rule="evenodd" d="M39.1971 26.6406V26.5357H39.282C39.3272 26.5357 39.3893 26.5396 39.3893 26.5842C39.3893 26.6323 39.3575 26.6406 39.3033 26.6406H39.1971ZM39.1971 26.7151H39.2543L39.3834 26.8976H39.5255L39.3826 26.7072C39.4576 26.7033 39.5171 26.6741 39.5171 26.5939C39.5171 26.4943 39.4322 26.4624 39.2868 26.4624H39.0779V26.8976H39.1976V26.7151H39.1971V26.7151ZM39.8074 26.6802C39.8074 26.4249 39.5606 26.2757 39.284 26.2757C39.0064 26.2757 38.7593 26.4249 38.7593 26.6802C38.7593 26.9367 39.0067 27.0853 39.284 27.0853C39.5606 27.0853 39.8074 26.9367 39.8074 26.6802ZM39.6569 26.6802C39.6569 26.8667 39.4861 26.9923 39.284 26.9923V26.9911C39.0776 26.9923 38.9096 26.8667 38.9096 26.6802C38.9096 26.4943 39.0773 26.3701 39.284 26.3701C39.4861 26.3701 39.6569 26.4943 39.6569 26.6802ZM20.8715 13.626C22.8254 13.626 23.9851 14.8053 23.9851 14.8053L22.3968 15.8436C21.6827 14.921 21.4437 14.5145 20.2566 14.4029V17.0255C20.5258 17.0952 20.8245 17.1372 21.1575 17.1372C23.4756 17.1372 25.6374 14.809 25.6374 14.809C25.6374 14.809 23.6355 12.702 20.5853 12.7757C20.4757 12.7787 20.3662 12.7834 20.2568 12.7899V13.6545C20.4551 13.6382 20.6587 13.626 20.8715 13.626V13.626Z" fill="#75E3AF"/>
<path fill-rule="evenodd" clip-rule="evenodd" d="M20.2566 10.7974V12.089C20.3659 12.0823 20.4755 12.0764 20.585 12.0742C24.827 11.9633 27.5905 14.7717 27.5905 14.7717C27.5905 14.7717 24.4162 17.7653 21.11 17.7653C20.8059 17.7653 20.5228 17.7444 20.2566 17.7073V18.5061C20.4921 18.5293 20.7292 18.5411 20.9666 18.5414C24.0445 18.5414 26.2699 17.3225 28.4245 15.8802C28.7819 16.1022 30.2452 16.6416 30.5451 16.8782C28.4967 18.2089 23.7207 19.2803 21.0146 19.2803C20.7528 19.2803 20.5022 19.2685 20.2566 19.2504V20.3729H31.9532V10.7974H20.2566ZM18.0618 15.1546C18.0618 15.1546 18.9927 14.2911 20.1831 14.4023C20.1852 14.4023 20.1862 14.4031 20.1882 14.4031V13.6547C17.9176 13.8446 16.5513 15.0197 16.5513 15.0197C16.5513 15.0197 17.3419 17.3144 20.1882 17.7075V17.0256C18.5826 16.6077 18.0618 15.1546 18.0618 15.1546Z" fill="#75E3AF"/>
<path fill-rule="evenodd" clip-rule="evenodd" d="M15.1319 14.9198C15.1319 14.9198 16.8189 12.989 20.1881 12.7899V12.0889C16.4571 12.3213 13.2251 14.7718 13.2251 14.7718C13.2251 14.7718 15.0554 18.8748 20.1879 19.2504V18.5064C16.4215 18.1385 15.1319 14.9198 15.1319 14.9198V14.9198ZM12.3405 26.2913C12.294 26.3636 12.2355 26.4269 12.2355 26.4728C12.2355 26.5456 12.294 26.5814 12.3641 26.5814C12.657 26.5814 13.2772 25.9918 13.3586 25.9918C13.4293 25.9918 13.4646 26.0283 13.4646 26.0642C13.4646 26.2552 12.4572 27.0721 11.6612 27.0721C11.451 27.0721 11.3687 27.0177 11.3687 26.9174C11.3687 26.8267 11.451 26.6725 11.5329 26.5272L12.8675 24.3214C12.9613 24.1669 12.9852 24.0494 12.9852 23.9585C12.9852 23.8134 12.8792 23.7133 12.7152 23.7133C12.294 23.7133 11.8839 24.0855 10.5379 25.7742C10.2923 26.0825 10.0819 26.3636 9.85942 26.7539C9.74274 26.9538 9.66012 27.0721 9.47303 27.0721C9.27398 27.0721 9.19238 27.0177 9.19238 26.9081C9.19238 26.8267 9.27373 26.6816 9.30906 26.6085L10.4212 24.3031C10.4797 24.1759 10.5379 24.0582 10.5379 23.9944C10.5379 23.922 10.468 23.8769 10.3625 23.8769C10.0585 23.8769 9.50836 24.5479 9.39092 24.5479C9.37861 24.5481 9.36638 24.5463 9.35496 24.5428C9.34354 24.5392 9.33315 24.5339 9.32441 24.5272C9.31567 24.5205 9.30875 24.5125 9.30406 24.5036C9.29937 24.4948 9.29701 24.4853 9.29712 24.4758C9.29712 24.3758 9.43718 24.2668 9.50811 24.1852C9.67182 24.0034 10.3622 23.4047 10.8188 23.4047C11.1 23.4047 11.1813 23.5404 11.1813 23.7856C11.1813 24.1397 10.4797 25.2927 10.4797 25.3927C10.4797 25.4108 10.4919 25.4378 10.5026 25.4378C10.5379 25.4378 10.5849 25.3834 10.6434 25.3105C10.8549 25.0473 11.8842 23.4047 12.9727 23.4047C13.4176 23.4047 13.6873 23.5863 13.6873 23.9035C13.6873 24.1304 13.5114 24.4121 13.3825 24.6207L12.3405 26.2913V26.2913ZM18.5696 23.9049C18.5775 23.8877 18.5843 23.8589 18.5843 23.8359C18.5843 23.6624 18.1895 23.6799 17.9742 23.6338C17.9145 23.622 17.8705 23.5934 17.8705 23.5589C17.8705 23.4662 17.9519 23.4491 17.9966 23.4491C18.2569 23.4491 18.4951 23.4722 18.7778 23.4722C19.0015 23.4722 19.3955 23.4491 19.4702 23.4491C19.5371 23.4491 19.5821 23.495 19.5821 23.5469C19.5821 23.5873 19.5745 23.6279 19.5224 23.6336C19.1202 23.6797 19.0833 23.7432 18.8304 24.2223L17.3423 27.0506C17.3355 27.0646 17.3233 27.0766 17.3072 27.0848C17.2911 27.0931 17.272 27.0971 17.2528 27.0964C17.1931 27.0964 17.1704 27.0506 17.1486 27.0154L15.422 23.7775C15.3551 23.6742 15.1983 23.6506 15.0575 23.6336C14.9235 23.6165 14.7971 23.6107 14.7971 23.5179C14.7971 23.466 14.9385 23.4489 14.983 23.4489C15.2659 23.4489 15.5483 23.472 15.8318 23.472C16.0697 23.472 16.3148 23.4489 16.5537 23.4489C16.6056 23.4489 16.7695 23.4601 16.7695 23.5238C16.7695 23.6218 16.6127 23.6336 16.4714 23.6336C16.3226 23.6336 16.1663 23.6279 16.1663 23.7489C16.1663 23.7665 16.1742 23.7836 16.1811 23.8006L16.9401 25.2841C17.3199 26.0287 17.4015 26.1097 17.4236 26.1097C17.461 26.1097 17.5281 26.1036 17.5581 26.0462L18.5696 23.9049V23.9049ZM22.0769 26.623C22.0769 26.779 22.2485 26.8078 22.3311 26.8192C22.5683 26.8541 22.7322 26.8541 22.7322 26.9351C22.7322 26.9984 22.5988 27.0041 22.4567 27.0041C22.2635 27.0041 22.1074 26.9811 21.7284 26.9811C21.3628 26.9811 21.1551 27.0041 20.9688 27.0041C20.7982 27.0041 20.6937 26.987 20.6937 26.9176C20.6937 26.8425 20.7382 26.8488 21.0733 26.8194C21.2067 26.8078 21.4378 26.7792 21.4378 26.5661V23.8767C21.4378 23.6916 21.3554 23.6626 21.1396 23.634C20.9238 23.5993 20.8648 23.6111 20.8648 23.5307C20.8648 23.4495 20.9762 23.4495 21.0662 23.4495C21.2965 23.4495 21.4152 23.4725 21.7655 23.4725C22.0624 23.4725 22.2116 23.4495 22.4353 23.4495C22.5993 23.4495 22.7699 23.4495 22.7699 23.5185C22.7699 23.6224 22.6359 23.6054 22.2864 23.6342C22.0853 23.6514 22.0774 23.8246 22.0774 23.9749V26.623H22.0769V26.623ZM24.8223 26.9809C24.6068 26.9809 24.3307 27.0039 24.1522 27.0039C24.1149 27.0039 24.0193 27.0039 24.0193 26.9462C24.0193 26.9002 24.0709 26.8486 24.2941 26.819C24.458 26.7963 24.6284 26.7788 24.6284 26.4442V23.7322C24.6284 23.6218 24.3159 23.6336 24.1227 23.6218C23.9522 23.6105 23.9001 23.6105 23.9001 23.5467C23.9001 23.4489 24.1004 23.4489 24.1899 23.4489H24.8671C25.2321 23.4489 25.5816 23.4142 26.0583 23.4142C27.6206 23.4142 28.8863 24.0145 28.8863 25.4055C28.8863 26.2713 27.8586 26.9807 26.5786 26.9807H24.8223V26.9809V26.9809ZM25.2682 26.2597C25.2682 26.6637 25.737 26.8423 26.2215 26.8423C26.8023 26.8423 28.1862 26.4673 28.1862 25.2957C28.1862 24.1127 26.8163 23.5873 25.8943 23.5873C25.2842 23.5873 25.2682 23.6912 25.2682 23.7722V26.2597V26.2597ZM31.4165 26.623C31.4165 26.779 31.5873 26.8078 31.6697 26.8192C31.9076 26.8541 32.0718 26.8541 32.0718 26.9351C32.0718 26.9984 31.9378 27.0041 31.7962 27.0041C31.6025 27.0041 31.4462 26.9811 31.0669 26.9811C30.7019 26.9811 30.4939 27.0041 30.3079 27.0041C30.137 27.0041 30.0323 26.987 30.0323 26.9176C30.0323 26.8425 30.0776 26.8488 30.4126 26.8194C30.5461 26.8078 30.7766 26.7792 30.7766 26.5661V23.8767C30.7766 23.6916 30.6953 23.6626 30.4782 23.634C30.2631 23.5993 30.2041 23.6111 30.2041 23.5307C30.2041 23.4495 30.3155 23.4495 30.4052 23.4495C30.6355 23.4495 30.7543 23.4725 31.1043 23.4725C31.4012 23.4725 31.5512 23.4495 31.7741 23.4495C31.9381 23.4495 32.1087 23.4495 32.1087 23.5185C32.1087 23.6224 31.9752 23.6054 31.6257 23.6342C31.4246 23.6514 31.4167 23.8246 31.4167 23.9749V26.623H31.4165V26.623ZM36.1651 25.6916C36.1056 25.5476 36.0761 25.5476 35.466 25.5415C34.9596 25.536 34.8409 25.5587 34.8106 25.605C34.6324 25.8879 34.3032 26.5824 34.3032 26.6463C34.3032 26.7614 34.4596 26.8074 34.5188 26.819C34.7501 26.8653 34.8981 26.8888 34.8981 26.9349C34.8981 27.0039 34.7799 27.0039 34.7273 27.0039C34.5262 27.0039 34.2882 26.9809 34.0734 26.9809C33.79 26.9809 33.4994 27.0039 33.2462 27.0039C33.1868 27.0039 33.1563 26.9868 33.1563 26.9349C33.1563 26.8596 33.3515 26.8714 33.5366 26.819C33.6855 26.7788 33.7231 26.7384 33.76 26.6753L35.6363 23.4347C35.6436 23.4242 35.6544 23.4154 35.6676 23.4093C35.6808 23.4032 35.6959 23.3999 35.7113 23.4C35.756 23.4 35.7926 23.4175 35.8003 23.441L37.2058 26.4038C37.3474 26.7214 37.4963 26.7963 37.5922 26.819C37.7938 26.8653 37.9354 26.8484 37.9354 26.9349C37.9354 26.9925 37.8759 27.0039 37.7864 27.0039C37.4661 27.0039 37.2139 26.9809 36.9226 26.9809C36.6481 26.9809 36.3875 27.0039 36.0974 27.0039C36.023 27.0039 35.9932 26.9633 35.9932 26.9404C35.9932 26.8714 36.1422 26.8541 36.4099 26.8192C36.4541 26.8137 36.5959 26.7676 36.5959 26.6694C36.5959 26.629 36.5662 26.5718 36.5512 26.5253L36.1651 25.6916V25.6916ZM34.967 25.1545C34.952 25.1896 34.9222 25.2243 34.9222 25.2584C34.9222 25.2876 35.3984 25.2876 35.4579 25.2876C35.5031 25.2876 35.9792 25.2876 35.9792 25.2529C35.9792 25.2241 35.9637 25.1948 35.9416 25.1431L35.5478 24.2313C35.5405 24.2197 35.5328 24.1966 35.5031 24.1966C35.4881 24.1966 35.4734 24.2079 35.466 24.2254L34.967 25.1545V25.1545Z" fill="#75E3AF"/>
</g>
<defs>
<clipPath id="clip0_213_228">
<rect width="49" height="38" fill="white"/>
</clipPath>
</defs>
</svg>